<?xml version="1.0" encoding="UTF-8"?>
<svg width="132px" height="49px" viewBox="0 0 132 49" version="1.1" xmlns="http://www.w3.org/2000/svg" xmlns:xlink="http://www.w3.org/1999/xlink">
    <title>Group-4</title>
    <g id="Page-1" stroke="none" stroke-width="1" fill="none" fill-rule="evenodd">
        <g id="1.-Immigrations-Initiate-i9." transform="translate(-83, -143)" fill-rule="nonzero">
            <g id="Group-2" transform="translate(-1, 138)">
                <g id="Group-4" transform="translate(84, 5)">
                    <path d="M15.0588235,17.8823529 C23.3756912,17.8823529 30.1176471,24.821707 30.1176471,33.3826211 C30.1176471,41.9429988 23.3756912,48.8823529 15.0588235,48.8823529 C6.7419559,48.8823529 0,41.9429988 0,33.3826211 C0,24.821707 6.7419559,17.8823529 15.0588235,17.8823529 Z M16.2892923,27.5083295 C15.0295267,27.5083295 13.8210306,27.9800092 12.663804,28.9233686 C11.5065774,29.8667279 10.5617532,31.0825483 9.82933134,32.5708295 C9.09690947,34.0591108 8.73069853,35.4009076 8.73069853,36.5962201 C8.73069853,37.609892 9.11448759,38.5928022 9.88206572,39.5449506 C10.6496438,40.497099 11.5285501,40.9731733 12.5187845,40.9731733 C14.0480813,40.9731733 15.2844095,40.7153608 16.2277688,40.1997358 C17.1711282,39.6841108 18.0983743,38.9546186 19.0095071,38.0112592 C19.9206399,37.0678998 20.6149759,36.0644818 21.0925149,35.0010053 C21.570054,33.9375287 21.8088235,33.0337201 21.8088235,32.2895795 C21.8088235,31.4458295 21.7194681,30.7822553 21.5407571,30.2988568 C21.3620462,29.8154584 21.0046243,29.3467084 20.4684915,28.8926068 C19.9323587,28.4385053 19.3464212,28.094267 18.710679,27.859892 C18.0749368,27.625517 17.2678079,27.5083295 16.2892923,27.5083295 Z M16.2892923,29.2485639 C16.9162454,29.2485639 17.5036477,29.3701459 18.0514993,29.61331 C18.5993509,29.856474 18.9875345,30.1611615 19.2160501,30.5273725 C19.4445657,30.8935834 19.5588235,31.375517 19.5588235,31.9731733 C19.5588235,33.6665326 18.870347,35.2676068 17.4933938,36.7763959 C16.1164407,38.285185 14.6428079,39.0395795 13.0724954,39.0395795 C12.5158548,39.0395795 12.0236673,38.7993451 11.5959329,38.3188764 C11.1681985,37.8384076 10.9543313,37.2378217 10.9543313,36.5171186 C10.9543313,34.9409467 11.5607767,33.3354779 12.7736673,31.7007123 C13.9865579,30.0659467 15.1584329,29.2485639 16.2892923,29.2485639 Z" id="Combined-Shape" fill="#00FAC2"></path>
                    <path d="M48.9411765,10.3529412 C57.2580441,10.3529412 64,17.0947805 64,25.4120252 C64,33.728749 57.2580441,40.4705882 48.9411765,40.4705882 C40.6243088,40.4705882 33.8823529,33.728749 33.8823529,25.4120252 C33.8823529,17.0947805 40.6243088,10.3529412 48.9411765,10.3529412 Z M55.2477022,19.4830538 C55.0602022,19.4830538 54.7379366,19.7262178 54.2809053,20.212546 C53.8238741,20.6988741 52.9742647,21.7887178 51.7320772,23.4820772 C50.4898897,25.181296 49.5523897,26.3736788 48.9195772,27.0592256 C48.7555147,26.690085 48.4303194,25.8228975 47.9439913,24.4576631 L46.7223116,21.0387178 L46.7297647,21.0537647 L46.6755538,20.8917647 C46.5883663,20.6686397 46.4486788,20.4305147 46.2564913,20.1773897 C46.0162569,19.8609835 45.7760225,19.7027803 45.5357881,19.7027803 C45.0904756,19.7027803 44.7301241,19.7877413 44.4547335,19.9576631 C44.1793428,20.127585 44.0416475,20.3707491 44.0416475,20.6871553 C44.0416475,21.2965303 43.9727999,22.0611788 43.8351045,22.9811006 C43.6974092,23.9010225 43.1451631,26.1363741 42.1783663,29.6871553 C41.9439913,30.5543428 41.8268038,31.2691866 41.8268038,31.8316866 C41.8268038,32.071921 41.9483858,32.3224092 42.1915499,32.5831514 C42.4347139,32.8438936 42.696921,32.9742647 42.978171,32.9742647 C43.118796,32.9742647 43.3224092,32.8893038 43.5890108,32.7193819 C43.8556124,32.54946 43.9947725,32.3912569 44.0064913,32.2447725 C44.0475069,31.8053194 44.1544405,31.1519991 44.327292,30.2848116 C44.5001436,29.4176241 44.6598116,28.6749483 44.806296,28.0567842 C44.9527803,27.4386202 45.096335,26.7603975 45.23696,26.0221163 L45.6852022,23.73696 C45.7730928,23.8658663 45.9430147,24.4049288 46.1949678,25.3541475 C46.306296,25.7643038 46.4996553,26.3678194 46.775046,27.1646944 C47.0504366,27.9615694 47.3199678,28.5548311 47.5836397,28.9444795 C47.8473116,29.334128 48.1490694,29.5289522 48.4889131,29.5289522 C49.221335,29.5289522 50.2643038,28.5826631 51.6178194,26.690085 L54.5445772,22.7350069 C54.5269991,22.8521944 54.4889131,23.0631319 54.4303194,23.3678194 C54.2662569,24.2115694 54.0846163,25.4200655 53.8853975,26.9933077 C53.6861788,28.5665499 53.5865694,29.8980928 53.5865694,30.9879366 C53.5865694,32.1422335 53.9703585,32.7193819 54.7379366,32.7193819 C55.1598116,32.7193819 55.4718233,32.6139131 55.6739717,32.4029756 C55.8761202,32.1920381 55.9771944,31.7965303 55.9771944,31.2164522 C55.9771944,30.9879366 55.9478975,30.7447725 55.8893038,30.48696 C55.8072725,30.1529756 55.7662569,29.8277803 55.7662569,29.5113741 C55.7662569,29.2535616 55.83071,28.4098116 55.9596163,26.9801241 C56.0885225,25.5504366 56.2320772,24.2584444 56.3902803,23.1041475 C56.618796,21.4693819 56.7330538,20.587546 56.7330538,20.4586397 C56.7330538,20.2887178 56.5572725,20.0836397 56.20571,19.8434053 C55.8541475,19.603171 55.5348116,19.4830538 55.2477022,19.4830538 Z" id="Combined-Shape" fill="#00C27B"></path>
                    <path d="M82.8235294,0 C91.140397,0 97.8823529,6.74183928 97.8823529,15.059084 C97.8823529,23.3758078 91.140397,30.1176471 82.8235294,30.1176471 C74.5066618,30.1176471 67.7647059,23.3758078 67.7647059,15.059084 C67.7647059,6.74183928 74.5066618,0 82.8235294,0 Z M88.9498794,8.98948759 C88.6686294,8.98948759 88.3888442,9.07737822 88.1105239,9.25315947 C87.8322036,9.42894072 87.678395,9.77464384 87.6490981,10.2902688 C87.6198012,10.8351907 87.53777,11.4592142 87.4030044,12.1623392 C87.2389419,13.0060892 87.0631606,14.0021829 86.8756606,15.1506204 C86.6119887,16.7619485 86.3688247,18.0715188 86.1461684,19.0793313 C85.3258559,18.0656595 84.4030044,16.7180032 83.3776137,15.0363626 C82.3522231,13.354722 81.7164809,12.0070657 81.4703872,10.9933938 C81.3121841,10.3664407 81.115895,9.9943704 80.88152,9.8771829 C80.647145,9.7599954 80.4391372,9.70140165 80.2574966,9.70140165 C79.9762466,9.70140165 79.7257583,9.77610869 79.5060317,9.92552275 C79.2863051,10.0749368 79.1515395,10.2302102 79.1017348,10.3913431 C79.0519301,10.5524759 79.0182387,10.8556985 79.0006606,11.301011 C78.9772231,12.2267923 78.7194106,13.8615579 78.2272231,16.2053079 L77.5856216,19.167222 L77.5768325,19.2199563 C77.3424575,20.0988626 77.22527,20.7726907 77.22527,21.2414407 C77.22527,21.8332376 77.3058364,22.2272806 77.4669692,22.4235696 C77.628102,22.6198587 77.8990981,22.7180032 78.2799575,22.7180032 C78.5201919,22.7180032 78.7706801,22.5803079 79.0314223,22.3049173 C79.2921645,22.0295267 79.4430434,21.5783548 79.4840591,20.9514017 C79.5192153,20.4299173 79.5602309,20.0314798 79.6071059,19.7560892 L79.7125747,18.9650735 C80.0758559,16.2931985 80.3453872,14.5939798 80.5211684,13.8674173 C81.8160903,16.2404642 83.1637466,18.3176126 84.5641372,20.0988626 C84.6989028,20.2746438 84.9069106,20.6056985 85.1881606,21.0920267 C85.3698012,21.4142923 85.5426528,21.6735696 85.7067153,21.8698587 C85.8707778,22.0661477 86.0011489,22.1848001 86.0978286,22.2258157 C86.1945083,22.2668313 86.3512466,22.2873392 86.5680434,22.2873392 C86.9313247,22.2873392 87.2257583,22.2155618 87.4513442,22.0720071 C87.6769301,21.9284524 87.81902,21.7746438 87.8776137,21.6105813 C87.9362075,21.4465188 87.9655044,21.1945657 87.9655044,20.854722 L87.9655044,20.5558938 C87.9655044,20.2570657 88.1412856,19.0471048 88.4928481,16.926011 C88.8444106,14.8049173 89.2047622,13.073472 89.5739028,11.7316751 C89.7438247,11.151597 89.8287856,10.7033548 89.8287856,10.3869485 C89.8287856,9.98851103 89.7423598,9.6559915 89.5695083,9.38938994 C89.3966567,9.12278837 89.1901137,8.98948759 88.9498794,8.98948759 Z" id="Combined-Shape" fill="#00FAC2"></path>
                    <path d="M116.705622,17.0071745 C125.022346,17.0071745 131.764706,23.7490138 131.764706,32.0662585 C131.764706,40.3829823 125.022346,47.1248216 116.705622,47.1248216 C108.388898,47.1248216 101.647059,40.3829823 101.647059,32.0662585 C101.647059,23.7490138 108.388898,17.0071745 116.705622,17.0071745 Z M121.531451,26.2427559 L121.408404,26.2515449 C121.367389,26.2515449 120.901568,26.3101387 120.010943,26.4273262 C117.333209,26.7788887 115.751178,26.9546699 115.264849,26.9546699 C114.983599,26.9195137 114.705279,26.9019355 114.429889,26.9019355 C114.23067,26.9019355 114.016803,26.963459 113.788287,27.0865059 C113.559771,27.2095527 113.433795,27.3325996 113.410357,27.4556465 C113.38692,27.5200996 113.375201,27.6050605 113.375201,27.7105293 C113.375201,27.909748 113.423541,28.1045723 113.520221,28.2950019 C113.6169,28.4854316 113.685748,28.5982246 113.726764,28.6333809 C113.76192,28.6743965 113.779498,28.697834 113.779498,28.7036934 C113.779498,28.9849434 113.609576,30.3677559 113.269732,32.8521309 C112.929889,35.3365059 112.642779,36.9390449 112.408404,37.659748 C112.302935,37.9702949 112.253131,38.1490059 112.25899,38.1958809 L112.285357,38.4859199 C112.326373,38.9136543 112.452349,39.2285957 112.663287,39.4307441 C112.874224,39.6328926 113.216998,39.7339668 113.691607,39.7339668 C114.593951,39.7339668 115.554889,39.6255684 116.57442,39.4087715 C117.716998,39.2564277 118.689654,39.1568184 119.492389,39.1099434 C120.529498,39.0454902 121.341021,38.8814277 121.926959,38.6177559 C122.10274,38.4771309 122.190631,38.2720527 122.190631,38.0025215 C122.190631,37.416584 121.81856,37.0708809 121.07442,36.9654121 C120.828326,36.9654121 120.303912,37.050373 119.501178,37.2202949 C119.214068,37.2788887 118.471392,37.3858223 117.27315,37.5410957 C116.074908,37.6963691 115.335162,37.7740059 115.053912,37.7740059 C114.813678,37.7740059 114.678912,37.6656074 114.649615,37.4488105 C114.649615,37.144123 114.714068,36.6094551 114.842974,35.8448066 C114.971881,35.0801582 115.061236,34.6450996 115.111041,34.5396309 C115.160846,34.4341621 115.235553,34.3667793 115.335162,34.3374824 C115.63399,34.2320137 116.594928,34.0855293 118.217974,33.8980293 C118.551959,33.862873 118.830279,33.8277168 119.052935,33.7925605 C119.47481,33.722248 119.85567,33.6695137 120.195514,33.6343574 C120.746295,33.5757637 121.150592,33.4688301 121.408404,33.3135566 C121.666217,33.1582832 121.795123,32.878498 121.795123,32.4742012 C121.795123,31.9234199 121.332232,31.6480293 120.406451,31.6480293 C119.94356,31.6480293 119.29024,31.7505684 118.44649,31.9556465 C118.153521,32.025959 117.655474,32.0992012 116.952349,32.175373 C116.249224,32.2515449 115.710162,32.2896309 115.335162,32.2896309 C115.364459,31.932209 115.452349,31.472248 115.598834,30.909748 C115.780474,30.1714668 115.885943,29.6558418 115.91524,29.362873 C115.938678,29.0640449 115.978228,28.8838691 116.033892,28.8223457 C116.089557,28.7608223 116.457232,28.6729316 117.13692,28.5586738 C117.816607,28.444416 118.628131,28.3609199 119.57149,28.3081855 L122.278521,28.1675605 C122.454303,28.1206855 122.637408,27.9932441 122.827838,27.7852363 C123.018267,27.5772285 123.113482,27.4029121 123.113482,27.2622871 C123.113482,26.5064277 122.586139,26.166584 121.531451,26.2427559 Z" id="Combined-Shape" fill="#00C27B"></path>
                </g>
            </g>
        </g>
    </g>
</svg>