<?xml version="1.0" encoding="UTF-8"?>
<svg width="227px" height="41px" viewBox="0 0 227 41" version="1.1" xmlns="http://www.w3.org/2000/svg" xmlns:xlink="http://www.w3.org/1999/xlink">
    <title>Group-23</title>
    <g id="Page-1" stroke="none" stroke-width="1" fill="none" fill-rule="evenodd">
        <g id="1.-Immigrations-Initiate-i9." transform="translate(-238, -147)" fill-rule="nonzero">
            <g id="Group-2" transform="translate(-1, 138)">
                <g id="Group-16" transform="translate(239, 9)">
                    <g id="Group-23" transform="translate(0.7647, 0)">
                        <g id="Onboard" transform="translate(27.1742, 30.9507) rotate(-10) translate(-27.1742, -30.9507)translate(0.3722, 26.4627)" fill="#FFFFFF">
                            <path d="M8.64,4.644 C8.64,2.112 6.732,0.336 4.332,0.336 C1.944,0.336 5.86709509e-16,2.112 5.86709509e-16,4.644 C5.86709509e-16,7.176 1.944,8.964 4.332,8.964 C6.72,8.964 8.64,7.176 8.64,4.644 Z M2.1,4.644 C2.1,3.144 2.964,2.196 4.332,2.196 C5.676,2.196 6.552,3.144 6.552,4.644 C6.552,6.12 5.676,7.092 4.332,7.092 C2.964,7.092 2.1,6.12 2.1,4.644 Z" id="Shape"></path>
                            <path d="M14.4,8.88 L16.44,8.88 L16.44,4.968 C16.44,3.168 15.408,2.112 13.86,2.112 C12.96,2.112 12.24,2.508 11.832,3.072 L11.832,2.184 L9.78,2.184 L9.78,8.88 L11.832,8.88 L11.832,5.244 C11.832,4.332 12.336,3.828 13.116,3.828 C13.896,3.828 14.4,4.332 14.4,5.244 L14.4,8.88 Z" id="Path"></path>
                            <path d="M19.92,3.132 L19.92,-4.6122161e-15 L17.868,-4.6122161e-15 L17.868,8.88 L19.92,8.88 L19.92,7.944 C20.292,8.532 21,8.976 21.984,8.976 C23.628,8.976 24.936,7.632 24.936,5.52 C24.936,3.408 23.64,2.088 21.984,2.088 C21.024,2.088 20.292,2.532 19.92,3.132 Z M22.848,5.52 C22.848,6.588 22.152,7.188 21.372,7.188 C20.604,7.188 19.908,6.6 19.908,5.532 C19.908,4.464 20.604,3.876 21.372,3.876 C22.152,3.876 22.848,4.452 22.848,5.52 Z" id="Shape"></path>
                            <path d="M32.568,5.532 C32.568,3.408 31.056,2.088 29.088,2.088 C27.132,2.088 25.608,3.408 25.608,5.532 C25.608,7.656 27.096,8.976 29.064,8.976 C31.032,8.976 32.568,7.656 32.568,5.532 Z M27.696,5.532 C27.696,4.392 28.344,3.864 29.088,3.864 C29.808,3.864 30.48,4.392 30.48,5.532 C30.48,6.66 29.796,7.2 29.064,7.2 C28.32,7.2 27.696,6.66 27.696,5.532 Z" id="Shape"></path>
                            <path d="M33.252,5.52 C33.252,7.632 34.56,8.976 36.192,8.976 C37.188,8.976 37.896,8.52 38.268,7.932 L38.268,8.88 L40.32,8.88 L40.32,2.184 L38.268,2.184 L38.268,3.132 C37.908,2.544 37.2,2.088 36.204,2.088 C34.56,2.088 33.252,3.408 33.252,5.52 Z M38.268,5.532 C38.268,6.6 37.584,7.188 36.804,7.188 C36.036,7.188 35.34,6.588 35.34,5.52 C35.34,4.452 36.036,3.876 36.804,3.876 C37.584,3.876 38.268,4.464 38.268,5.532 Z" id="Shape"></path>
                            <path d="M43.86,5.772 C43.86,4.62 44.424,4.284 45.396,4.284 L45.96,4.284 L45.96,2.112 C45.06,2.112 44.328,2.592 43.86,3.3 L43.86,2.184 L41.808,2.184 L41.808,8.88 L43.86,8.88 L43.86,5.772 Z" id="Path"></path>
                            <path d="M46.536,5.52 C46.536,7.632 47.844,8.976 49.488,8.976 C50.472,8.976 51.18,8.532 51.552,7.92 L51.552,8.88 L53.604,8.88 L53.604,5.23385869e-14 L51.552,5.23385869e-14 L51.552,3.108 C51.144,2.496 50.376,2.088 49.488,2.088 C47.844,2.088 46.536,3.408 46.536,5.52 Z M51.552,5.532 C51.552,6.6 50.868,7.188 50.088,7.188 C49.32,7.188 48.624,6.588 48.624,5.52 C48.624,4.452 49.32,3.876 50.088,3.876 C50.868,3.876 51.552,4.464 51.552,5.532 Z" id="Shape"></path>
                        </g>
                        <g id="Engage" transform="translate(202.3973, 15.0084) rotate(24) translate(-202.3973, -15.0084)translate(179.7293, 9.1464)" fill="#FFFFFF">
                            <polygon id="Path" points="5.16 2.07397203e-14 -5.12793858e-14 2.07397203e-14 -5.12793858e-14 8.424 5.16 8.424 5.16 6.78 2.052 6.78 2.052 4.932 4.8 4.932 4.8 3.348 2.052 3.348 2.052 1.644 5.16 1.644"></polygon>
                            <path d="M11.112,8.424 L13.152,8.424 L13.152,4.512 C13.152,2.712 12.12,1.656 10.572,1.656 C9.672,1.656 8.952,2.052 8.544,2.616 L8.544,1.728 L6.492,1.728 L6.492,8.424 L8.544,8.424 L8.544,4.788 C8.544,3.876 9.048,3.372 9.828,3.372 C10.608,3.372 11.112,3.876 11.112,4.788 L11.112,8.424 Z" id="Path"></path>
                            <path d="M14.172,5.064 C14.172,7.176 15.48,8.52 17.124,8.52 C18.108,8.52 18.816,8.052 19.188,7.464 L19.188,8.412 C19.188,9.54 18.576,9.948 17.796,9.948 C17.088,9.948 16.584,9.624 16.452,9.12 L14.424,9.12 C14.604,10.716 15.9,11.724 17.892,11.724 C20.208,11.724 21.24,10.2 21.24,8.412 L21.24,1.728 L19.188,1.728 L19.188,2.676 C18.828,2.076 18.108,1.632 17.124,1.632 C15.48,1.632 14.172,2.952 14.172,5.064 Z M19.188,5.076 C19.188,6.144 18.504,6.732 17.724,6.732 C16.956,6.732 16.26,6.132 16.26,5.064 C16.26,3.996 16.956,3.42 17.724,3.42 C18.504,3.42 19.188,4.008 19.188,5.076 Z" id="Shape"></path>
                            <path d="M22.32,5.064 C22.32,7.176 23.628,8.52 25.26,8.52 C26.256,8.52 26.964,8.064 27.336,7.476 L27.336,8.424 L29.388,8.424 L29.388,1.728 L27.336,1.728 L27.336,2.676 C26.976,2.088 26.268,1.632 25.272,1.632 C23.628,1.632 22.32,2.952 22.32,5.064 Z M27.336,5.076 C27.336,6.144 26.652,6.732 25.872,6.732 C25.104,6.732 24.408,6.132 24.408,5.064 C24.408,3.996 25.104,3.42 25.872,3.42 C26.652,3.42 27.336,4.008 27.336,5.076 Z" id="Shape"></path>
                            <path d="M30.468,5.064 C30.468,7.176 31.776,8.52 33.42,8.52 C34.404,8.52 35.112,8.052 35.484,7.464 L35.484,8.412 C35.484,9.54 34.872,9.948 34.092,9.948 C33.384,9.948 32.88,9.624 32.748,9.12 L30.72,9.12 C30.9,10.716 32.196,11.724 34.188,11.724 C36.504,11.724 37.536,10.2 37.536,8.412 L37.536,1.728 L35.484,1.728 L35.484,2.676 C35.124,2.076 34.404,1.632 33.42,1.632 C31.776,1.632 30.468,2.952 30.468,5.064 Z M35.484,5.076 C35.484,6.144 34.8,6.732 34.02,6.732 C33.252,6.732 32.556,6.132 32.556,5.064 C32.556,3.996 33.252,3.42 34.02,3.42 C34.8,3.42 35.484,4.008 35.484,5.076 Z" id="Shape"></path>
                            <path d="M41.976,3.276 C42.66,3.276 43.236,3.696 43.236,4.428 L40.668,4.428 C40.788,3.684 41.304,3.276 41.976,3.276 Z M45.18,6.204 L42.996,6.204 C42.828,6.564 42.504,6.852 41.928,6.852 C41.268,6.852 40.728,6.444 40.656,5.568 L45.3,5.568 C45.324,5.364 45.336,5.16 45.336,4.968 C45.336,2.928 43.956,1.632 42,1.632 C40.008,1.632 38.616,2.952 38.616,5.076 C38.616,7.2 40.032,8.52 42,8.52 C43.668,8.52 44.856,7.512 45.18,6.204 Z" id="Shape"></path>
                        </g>
                        <g id="Network" transform="translate(146.8391, 8.8562) rotate(-10) translate(-146.8391, -8.8562)translate(121.2911, 4.3682)" fill="#FFFFFF">
                            <polygon id="Path" points="5.484 0.456 5.484 5.676 2.052 0.456 1.27705472e-15 0.456 1.27705472e-15 8.88 2.052 8.88 2.052 3.684 5.484 8.88 7.536 8.88 7.536 0.456"></polygon>
                            <path d="M11.976,3.732 C12.66,3.732 13.236,4.152 13.236,4.884 L10.668,4.884 C10.788,4.14 11.304,3.732 11.976,3.732 Z M15.18,6.66 L12.996,6.66 C12.828,7.02 12.504,7.308 11.928,7.308 C11.268,7.308 10.728,6.9 10.656,6.024 L15.3,6.024 C15.324,5.82 15.336,5.616 15.336,5.424 C15.336,3.384 13.956,2.088 12,2.088 C10.008,2.088 8.616,3.408 8.616,5.532 C8.616,7.656 10.032,8.976 12,8.976 C13.668,8.976 14.856,7.968 15.18,6.66 Z" id="Shape"></path>
                            <path d="M16.74,6.552 C16.74,8.292 17.712,8.88 19.104,8.88 L20.148,8.88 L20.148,7.14 L19.416,7.14 C18.96,7.14 18.792,6.972 18.792,6.576 L18.792,3.888 L20.136,3.888 L20.136,2.184 L18.792,2.184 L18.792,0.552 L16.74,0.552 L16.74,2.184 L15.924,2.184 L15.924,3.888 L16.74,3.888 L16.74,6.552 Z" id="Path"></path>
                            <polygon id="Path" points="22.416 8.88 24.672 8.88 25.764 4.536 26.82 8.88 29.088 8.88 30.9 2.184 28.968 2.184 28.032 6.948 26.892 2.184 24.72 2.184 23.592 6.972 22.644 2.184 20.592 2.184"></polygon>
                            <path d="M38.232,5.532 C38.232,3.408 36.72,2.088 34.752,2.088 C32.796,2.088 31.272,3.408 31.272,5.532 C31.272,7.656 32.76,8.976 34.728,8.976 C36.696,8.976 38.232,7.656 38.232,5.532 Z M33.36,5.532 C33.36,4.392 34.008,3.864 34.752,3.864 C35.472,3.864 36.144,4.392 36.144,5.532 C36.144,6.66 35.46,7.2 34.728,7.2 C33.984,7.2 33.36,6.66 33.36,5.532 Z" id="Shape"></path>
                            <path d="M41.376,5.772 C41.376,4.62 41.94,4.284 42.912,4.284 L43.476,4.284 L43.476,2.112 C42.576,2.112 41.844,2.592 41.376,3.3 L41.376,2.184 L39.324,2.184 L39.324,8.88 L41.376,8.88 L41.376,5.772 Z" id="Path"></path>
                            <polygon id="Path" points="44.46 8.88 46.512 8.88 46.512 6.072 48.552 8.88 51.096 8.88 48.288 5.544 51.072 2.184 48.54 2.184 46.512 4.908 46.512 -2.24789041e-15 44.46 -2.24789041e-15"></polygon>
                        </g>
                        <g id="Manage" transform="translate(88.0396, 21.6009) rotate(-10) translate(-88.0396, -21.6009)translate(63.1096, 15.7389)" fill="#FFFFFF">
                            <polygon id="Path" points="-6.62749773e-17 8.424 2.052 8.424 2.052 3.36 3.948 8.424 5.604 8.424 7.488 3.372 7.488 8.424 9.54 8.424 9.54 -2.64657996e-15 7.128 -2.64657996e-15 4.788 5.832 2.424 -2.64657996e-15 -6.62749773e-17 -2.64657996e-15"></polygon>
                            <path d="M10.608,5.064 C10.608,7.176 11.916,8.52 13.548,8.52 C14.544,8.52 15.252,8.064 15.624,7.476 L15.624,8.424 L17.676,8.424 L17.676,1.728 L15.624,1.728 L15.624,2.676 C15.264,2.088 14.556,1.632 13.56,1.632 C11.916,1.632 10.608,2.952 10.608,5.064 Z M15.624,5.076 C15.624,6.144 14.94,6.732 14.16,6.732 C13.392,6.732 12.696,6.132 12.696,5.064 C12.696,3.996 13.392,3.42 14.16,3.42 C14.94,3.42 15.624,4.008 15.624,5.076 Z" id="Shape"></path>
                            <path d="M23.784,8.424 L25.824,8.424 L25.824,4.512 C25.824,2.712 24.792,1.656 23.244,1.656 C22.344,1.656 21.624,2.052 21.216,2.616 L21.216,1.728 L19.164,1.728 L19.164,8.424 L21.216,8.424 L21.216,4.788 C21.216,3.876 21.72,3.372 22.5,3.372 C23.28,3.372 23.784,3.876 23.784,4.788 L23.784,8.424 Z" id="Path"></path>
                            <path d="M26.844,5.064 C26.844,7.176 28.152,8.52 29.784,8.52 C30.78,8.52 31.488,8.064 31.86,7.476 L31.86,8.424 L33.912,8.424 L33.912,1.728 L31.86,1.728 L31.86,2.676 C31.5,2.088 30.792,1.632 29.796,1.632 C28.152,1.632 26.844,2.952 26.844,5.064 Z M31.86,5.076 C31.86,6.144 31.176,6.732 30.396,6.732 C29.628,6.732 28.932,6.132 28.932,5.064 C28.932,3.996 29.628,3.42 30.396,3.42 C31.176,3.42 31.86,4.008 31.86,5.076 Z" id="Shape"></path>
                            <path d="M34.992,5.064 C34.992,7.176 36.3,8.52 37.944,8.52 C38.928,8.52 39.636,8.052 40.008,7.464 L40.008,8.412 C40.008,9.54 39.396,9.948 38.616,9.948 C37.908,9.948 37.404,9.624 37.272,9.12 L35.244,9.12 C35.424,10.716 36.72,11.724 38.712,11.724 C41.028,11.724 42.06,10.2 42.06,8.412 L42.06,1.728 L40.008,1.728 L40.008,2.676 C39.648,2.076 38.928,1.632 37.944,1.632 C36.3,1.632 34.992,2.952 34.992,5.064 Z M40.008,5.076 C40.008,6.144 39.324,6.732 38.544,6.732 C37.776,6.732 37.08,6.132 37.08,5.064 C37.08,3.996 37.776,3.42 38.544,3.42 C39.324,3.42 40.008,4.008 40.008,5.076 Z" id="Shape"></path>
                            <path d="M46.5,3.276 C47.184,3.276 47.76,3.696 47.76,4.428 L45.192,4.428 C45.312,3.684 45.828,3.276 46.5,3.276 Z M49.704,6.204 L47.52,6.204 C47.352,6.564 47.028,6.852 46.452,6.852 C45.792,6.852 45.252,6.444 45.18,5.568 L49.824,5.568 C49.848,5.364 49.86,5.16 49.86,4.968 C49.86,2.928 48.48,1.632 46.524,1.632 C44.532,1.632 43.14,2.952 43.14,5.076 C43.14,7.2 44.556,8.52 46.524,8.52 C48.192,8.52 49.38,7.512 49.704,6.204 Z" id="Shape"></path>
                        </g>
                        <circle id="Oval" fill="#00E284" cx="58.4900869" cy="24.9598283" r="2"></circle>
                        <circle id="Oval-Copy" fill="#00E284" cx="116.79906" cy="14.9598283" r="2"></circle>
                        <circle id="Oval-Copy-2" fill="#00E284" cx="176.092841" cy="3.95982834" r="2"></circle>
                    </g>
                </g>
            </g>
        </g>
    </g>
</svg>